<?xml version="1.0" encoding="UTF-8" standalone="no"?>
<svg
   version="1.1"
   x="0px"
   y="0px"
   viewBox="0 0 100 125"
   enable-background="new 0 0 100 100"
   xml:space="preserve"
   id="svg24"
   sodipodi:docname="manpointing.svg"
   inkscape:version="1.4 (86a8ad7, 2024-10-11)"
   xmlns:inkscape="http://www.inkscape.org/namespaces/inkscape"
   xmlns:sodipodi="http://sodipodi.sourceforge.net/DTD/sodipodi-0.dtd"
   xmlns="http://www.w3.org/2000/svg"
   xmlns:svg="http://www.w3.org/2000/svg"><defs
     id="defs24" /><sodipodi:namedview
     id="namedview24"
     pagecolor="#ffffff"
     bordercolor="#000000"
     borderopacity="0.25"
     inkscape:showpageshadow="2"
     inkscape:pageopacity="0.0"
     inkscape:pagecheckerboard="0"
     inkscape:deskcolor="#d1d1d1"
     inkscape:zoom="9.336"
     inkscape:cx="49.967866"
     inkscape:cy="62.5"
     inkscape:window-width="2560"
     inkscape:window-height="1369"
     inkscape:window-x="2552"
     inkscape:window-y="-8"
     inkscape:window-maximized="1"
     inkscape:current-layer="svg24" /><path
     d="M42.7,72.1c-0.1,0-0.3,0-0.4-0.1c-0.2-0.1-0.4-0.4-0.4-0.6c-0.6-6.4-0.4-13.1-0.3-19.5c0.1-2.8,0.1-5.6,0.1-8.4  c0-0.4,0.3-0.8,0.8-0.8c0.4,0,0.8,0.3,0.8,0.8c0,2.8-0.1,5.6-0.1,8.4c-0.1,6.1-0.2,12.3,0.2,18.3c3.5-1.2,7.9-1,12.2-0.8  c2,0.1,3.9,0.2,5.6,0.1c0.5-9.6,0.5-19.2,0-28c-0.5-0.1-1.1-0.2-1.8-0.3c-5.4-0.8-15.5-2.4-17.1,0.7c-0.2,0.4-0.7,0.5-1,0.3  c-0.4-0.2-0.5-0.7-0.3-1c2.1-4.1,12.1-2.6,18.7-1.6c0.9,0.1,1.7,0.3,2.4,0.4c0.4,0,0.6,0.4,0.7,0.7c0.6,9.2,0.6,19.4,0,29.5  c0,0.4-0.3,0.7-0.7,0.7c-2,0.1-4.1,0-6.4-0.1C51,70.7,46.4,70.5,43,72C42.9,72.1,42.8,72.1,42.7,72.1z"
     id="path1" /><path
     d="M46.2,90.7c-0.3,0-0.6-0.2-0.7-0.5c-1.5-4-1.3-8.8-1.1-13.5c0.1-1.5,0.1-3,0.1-4.4c0-0.4,0.3-0.8,0.8-0.8l0,0  c0.4,0,0.8,0.3,0.8,0.8c0,1.4-0.1,2.9-0.1,4.5c-0.2,4.5-0.4,9.2,1,12.9c0.1,0.4-0.1,0.8-0.5,1C46.4,90.6,46.3,90.7,46.2,90.7z"
     id="path2" /><path
     d="M44.4,89.7c-0.1,0-0.3,0-0.4-0.1c-0.4-0.2-0.5-0.7-0.2-1.1c1-1.6,4.4-2.5,7.3-2.5c0.9-4.2,0.9-8.2,0.9-12.6l0-1.2  c0-0.4,0.3-0.8,0.8-0.8c0.4,0,0.8,0.3,0.8,0.8l0,1.2c0,4.6,0,9-1.1,13.5c-0.1,0.4-0.4,0.6-0.8,0.6c-3-0.1-6,0.9-6.6,1.8  C44.9,89.6,44.6,89.7,44.4,89.7z"
     id="path3" /><path
     d="M46.3,93.5c-2.3,0-4.6,0-6.8-0.1c-0.3,0-0.6-0.3-0.7-0.6c-0.4-1.5-0.4-3.4-0.1-4.8c0.1-0.3,0.3-0.6,0.7-0.6  c2.5-0.2,5,0.1,7.4,0.5c1,0.1,1.9,0.3,2.9,0.4c0.4,0,0.7,0.4,0.7,0.8c0,0.4-0.4,0.7-0.8,0.7c-1-0.1-2-0.2-3-0.4  c-2.1-0.3-4.3-0.6-6.5-0.5c-0.1,0.9-0.1,2,0.1,3c2.9,0.1,5.9,0.1,8.8,0.1l2.5,0l0,0c0.4,0,0.8,0.3,0.8,0.8c0,0.4-0.3,0.8-0.8,0.8  l-2.5,0C48.1,93.5,47.2,93.5,46.3,93.5z"
     id="path4" /><path
     d="M56.5,87.9C56.4,87.9,56.4,87.9,56.5,87.9c-0.5,0-0.8-0.4-0.8-0.8c0.5-5.2,1.2-10.7,2.8-15.9c0.1-0.4,0.6-0.6,1-0.5  c0.4,0.1,0.6,0.6,0.5,1c-1.6,5.1-2.3,10.5-2.8,15.6C57.2,87.6,56.8,87.9,56.5,87.9z"
     id="path5" /><path
     d="M57.9,92.9c-1.4,0-2.8-0.3-4.1-0.8c-0.4-0.2-0.6-0.6-0.4-1c0.2-0.4,0.6-0.6,1-0.4c2.1,0.9,4.7,0.9,7.2,0  c0.1-0.7,0.1-1.4,0-2.1c-2.8-0.1-5.6-0.2-8.4-0.1c-0.4,0-0.8-0.3-0.8-0.8c0-0.4,0.3-0.8,0.8-0.8c3.1-0.1,6.2,0,9.2,0.1  c0.4,0,0.7,0.3,0.7,0.6c0.3,1.4,0.3,2.5,0,3.7c-0.1,0.3-0.2,0.5-0.5,0.6C61,92.6,59.4,92.9,57.9,92.9z"
     id="path6" /><path
     d="M55.5,34.2c-0.9,0-1.9-0.1-2.7-0.3c-1.1-0.3-2.6-0.9-3.1-2.1c-0.2-0.4,0-0.8,0.4-1c0.4-0.2,0.8,0,1,0.4c0.2,0.5,1,1,2.1,1.3  c1.7,0.5,3.8,0.4,4.6-0.2c0.4-0.2,0.8-0.2,1.1,0.2c0.2,0.3,0.2,0.8-0.2,1.1C58,34,56.8,34.2,55.5,34.2z"
     id="path7" /><path
     d="M54.6,30.8c-0.3,0-0.7,0-1,0c-0.3,0-0.6,0-0.9,0c-0.4,0-0.8-0.3-0.8-0.8c0-0.4,0.3-0.8,0.8-0.8c0,0,0,0,0,0  c0.3,0,0.6,0,0.9,0c0.6,0,1.2,0,1.8,0c-0.4-1.4-1.7-4.3-2-4.8c0,0-0.1-0.1-0.1-0.2c-0.2-0.4,0-0.8,0.4-1c0.2-0.1,0.5-0.1,0.8,0.1  c0.7,0.4,2.6,5.7,2.6,6.6c0,0.4-0.3,0.7-0.7,0.7C55.9,30.8,55.3,30.8,54.6,30.8z"
     id="path8" /><path
     d="M58.3,27.1c-0.4,0-0.7-0.3-0.8-0.6c-0.2-1.1,0.1-2.3,0.5-3.2c0.2-0.4,0.6-0.6,1-0.4c0.4,0.2,0.6,0.6,0.4,1  c-0.3,0.6-0.6,1.6-0.4,2.3c0.1,0.4-0.2,0.8-0.6,0.9C58.4,27.1,58.4,27.1,58.3,27.1z"
     id="path9" /><path
     d="M49.5,26.6c-0.4,0-0.8-0.3-0.8-0.8v-2.3c0-0.4,0.3-0.8,0.8-0.8s0.8,0.3,0.8,0.8v2.3C50.3,26.3,49.9,26.6,49.5,26.6z"
     id="path10" /><path
     d="M62.5,39.2c-0.4,0-0.7-0.3-0.8-0.7c-0.1-1-0.2-2.1-0.2-3.3C61.2,29,60.7,20.7,54.2,20c-1.6-0.2-2.9,0.2-4,1  c-3,2.4-3.5,8.5-3.8,13c-0.1,1.1-0.2,2.2-0.3,3.1c-0.1,0.4-0.4,0.7-0.9,0.7c-0.4-0.1-0.7-0.4-0.7-0.9c0.1-0.8,0.2-1.9,0.3-3  c0.4-4.7,0.9-11.2,4.4-14.1c1.4-1.1,3.1-1.6,5.2-1.4c7.8,0.9,8.3,10.3,8.6,16.6c0.1,1.2,0.1,2.3,0.2,3.3  C63.3,38.7,63,39.1,62.5,39.2C62.5,39.2,62.5,39.2,62.5,39.2z"
     id="path11" /><path
     d="M45.3,26.6c-0.3,0-0.5-0.2-0.7-0.4l-0.5-0.9c-1.8-3.5-4.1-7.8-3.4-12c0.9-5.3,6.5-6.7,11.4-6.3c4.9,0.4,11.3,2.6,13.2,7.4  c1.7,4-0.8,8.1-2.8,11.3l-0.3,0.5c-0.2,0.4-0.7,0.5-1.1,0.3c-0.4-0.2-0.5-0.7-0.3-1.1l0.3-0.5c1.8-2.9,4.1-6.6,2.7-9.9  c-1.7-4.1-7.5-6-11.9-6.4c-2-0.2-8.7-0.4-9.7,5c-0.6,3.7,1.4,7.5,3.2,11l0.5,0.9c0.2,0.4,0.1,0.8-0.3,1  C45.6,26.6,45.4,26.6,45.3,26.6z"
     id="path12" /><path
     d="M59.7,21.5c0,0-0.1,0-0.2,0c-4.1-0.8-8.1-3.1-11.1-6.4c0,0-0.1-0.1-0.1-0.1c-0.3-0.3-0.2-0.8,0.1-1.1  c0.3-0.3,0.8-0.2,1.1,0.1c0,0,0,0,0,0c0.4,0,0.7,0.3,0.7,0.7c2.7,2.7,6.1,4.6,9.6,5.3c0.4,0.1,0.7,0.5,0.6,0.9  C60.4,21.3,60.1,21.5,59.7,21.5z"
     id="path13" /><path
     d="M43.5,31.3C43.4,31.3,43.4,31.3,43.5,31.3c-2-0.1-3.6-1.1-4.3-2.7c-0.6-1.3-0.5-2.7,0.2-3.7c0.4-0.6,1.5-1.5,3.7-1.2  c0.4,0.1,0.7,0.5,0.6,0.9c-0.1,0.4-0.5,0.7-0.9,0.6c-1-0.2-1.8,0.1-2.3,0.6c-0.4,0.5-0.4,1.3-0.1,2.1c0.5,1.1,1.6,1.7,3,1.8  c0.4,0,0.8,0.4,0.7,0.8C44.2,31,43.9,31.3,43.5,31.3z"
     id="path14" /><path
     d="M62.5,31.7c-0.3,0-0.6-0.2-0.7-0.5c-0.1-0.4,0.1-0.8,0.5-1c1.7-0.6,3.5-1.6,3.7-2.8c0.2-1-0.3-1.6-0.8-1.9  c-0.5-0.3-1.2-0.3-1.7,0.1c-0.3,0.2-0.8,0.2-1.1-0.2c-0.2-0.3-0.2-0.8,0.2-1.1c1.1-0.7,2.4-0.8,3.5-0.1c1.1,0.7,1.7,2.1,1.5,3.5  c-0.4,2.2-3.1,3.5-4.7,4C62.7,31.7,62.6,31.7,62.5,31.7z"
     id="path15" /><path
     d="M50.7,62.2c-0.1,0-0.1,0-0.2,0c-0.4-0.1-0.7-0.5-0.6-0.9c1.2-4.9,0.3-16.1-2-19.8c-0.2-0.4-0.1-0.8,0.2-1.1  c0.4-0.2,0.8-0.1,1.1,0.2c1.7,2.7,2.6,8.4,2.8,13.4c1.7-5.6,3.7-10.7,6.1-14.2c0-0.1,0.1-0.1,0.1-0.1c0.2-0.2,0.7-0.6,1.3-0.3  c0.5,0.3,0.4,0.9,0.4,1.1c0,0.1,0,0.1,0,0.2c0.2,0.3,0.1,0.7-0.2,0.9c-0.3,0.2-0.6,0.3-0.9,0.1c-3.4,5.6-6,15.2-7.2,19.9  C51.4,62,51.1,62.2,50.7,62.2z"
     id="path16" /><path
     d="M52.9,45.7c-0.8,0-1.6-0.3-2.2-0.9c-0.5-0.5-1.9-2.2-0.3-5.3c0.1-0.2,0.3-0.3,0.5-0.4c1.4-0.3,2.2,0.4,2.8,1.1l0,0  c0.3,0,0.6,0.1,0.9,0.2c0.2,0.1,0.4,0.3,0.5,0.5c0.9,2.9-0.4,4-1,4.4C53.9,45.6,53.4,45.7,52.9,45.7z M51.7,40.7  c-0.6,1.3-0.6,2.4,0.1,3.1c0.5,0.5,1.2,0.6,1.7,0.3c0.5-0.3,0.7-1.1,0.4-2.2c0,0-0.1,0-0.1,0c-0.2,0.1-0.3,0.1-0.5,0  c-0.1,0-0.2,0-0.2,0c-0.4,0.1-0.8-0.2-0.9-0.6c0-0.1,0-0.3,0-0.4C52,40.7,51.9,40.7,51.7,40.7C51.7,40.7,51.7,40.7,51.7,40.7z"
     id="path17" /><path
     d="M51.7,54.9c-0.2,0-0.4-0.1-0.5-0.2c-0.3-0.3-0.3-0.8,0-1.1c1.9-2.1,1.8-4.8,1.7-7.8c0-0.7-0.1-1.5-0.1-2.2  c0-0.4,0.3-0.8,0.8-0.8c0,0,0,0,0,0c0.4,0,0.8,0.3,0.8,0.8c0,0.7,0,1.4,0.1,2.1c0.1,3,0.3,6.4-2.1,8.9  C52.1,54.8,51.9,54.9,51.7,54.9z"
     id="path18" /><path
     d="M53.4,36.7c-0.8,0-1.6-0.2-2.2-0.6c-1.3-0.9-1.8-2.5-1.4-4.4c0.1-0.3,0.3-0.5,0.6-0.6c0.5-0.1,0.8,0.1,0.9,0.2  c0.2,0.2,0.4,0.4,0.3,0.9c0,0.2-0.2,0.4-0.4,0.6c-0.1,0.9,0.2,1.6,0.8,2c1,0.7,2.6,0.4,3.9-0.5c0.3-0.3,0.8-0.2,1.1,0.2  c0.3,0.3,0.2,0.8-0.2,1.1C55.7,36.3,54.5,36.7,53.4,36.7z M50,32l0.6,0.1v0L50,32C50,32,50,32,50,32z"
     id="path19" /><path
     d="M39.8,61c-0.1,0-0.1,0-0.2,0c-1.6-0.4-3.1-1.1-4.7-1.8c-1.6-0.7-3.3-1.5-5-1.9c-0.3-0.1-0.5-0.3-0.6-0.6  c-0.3-2.2-0.5-5,1.4-6.8c0.3-0.3,0.7-0.3,1-0.1c0.8,0.6,1.8,1,2.7,1.4c0.9,0.4,1.9,0.8,2.7,1.4c0.3-0.9,0.5-1.9,0.7-3  c0.5-2.3,1.1-4.8,2.1-6.8c0.2-0.4,0.6-0.5,1-0.4c0.4,0.2,0.5,0.6,0.4,1c-0.9,1.9-1.4,4.3-2,6.5c-0.3,1.4-0.7,2.9-1.1,4.3  c-0.1,0.3-0.3,0.5-0.6,0.5c-0.3,0.1-0.6,0-0.7-0.2c-0.8-0.9-1.9-1.4-3.1-1.9c-0.8-0.3-1.6-0.7-2.3-1.1c-0.8,1.2-0.8,3-0.6,4.5  c1.7,0.5,3.2,1.2,4.8,1.9c1.3,0.6,2.6,1.1,3.8,1.5c1-2.5,2-4.5,3-6.2c0.2-0.4,0.7-0.5,1.1-0.3c0.4,0.2,0.5,0.7,0.3,1.1  c-1.1,1.8-2.1,3.9-3.1,6.6C40.4,60.8,40.1,61,39.8,61z"
     id="path20" /><path
     d="M27.3,56.8c-1.7,0-3.3-0.4-4.3-1.1c-1.1-0.7-1.2-1.6-1.1-2c0-0.5,0.3-0.9,0.7-1.3c-0.6-0.2-1.1-0.5-1.5-0.8  c-0.5-0.5-1.1-1.5-0.9-3.1c0.1-0.4,0.4-0.7,0.7-0.7c2.7-0.1,7.4,0.7,9.7,2.6c0.3,0.3,0.4,0.8,0.1,1.1c-0.3,0.3-0.8,0.4-1.1,0.1  c-1.6-1.3-5.2-2.1-8-2.2c0,0.4,0.2,0.8,0.5,1.1c0.6,0.5,1.6,0.7,2.8,0.5c0.4-0.1,0.8,0.2,0.9,0.5c0.1,0.4-0.1,0.8-0.4,0.9  c-1.8,0.8-1.9,1.4-1.9,1.4c0,0.1,0.2,0.4,0.5,0.6c1.4,0.9,4.5,1.2,6.4,0.2c0.4-0.2,0.8,0,1,0.3c0.2,0.4,0,0.8-0.3,1  C29.9,56.6,28.6,56.8,27.3,56.8z"
     id="path21" /><path
     d="M64.8,59c0,0-0.1,0-0.1,0c-1.3-0.2-2.5-0.7-3.5-1.6c-0.3-0.2-0.4-0.6-0.2-1c1.1-2.1,2-4.3,2.6-6.5c0-0.1,0.1-0.3,0.1-0.3  c0,0-0.1-0.2-0.2-0.2l-1.9-2.1c-0.3-0.3-0.3-0.8,0-1.1c0.3-0.3,0.8-0.3,1.1,0l1.9,2.1c0.2,0.2,0.4,0.5,0.5,0.9  c0.1,0.4,0,0.8-0.1,1.1c-0.6,2.2-1.4,4.3-2.4,6.2c0.6,0.4,1.2,0.6,1.8,0.8c1.3-1.6,2.6-3.2,3.7-5c0.4-0.7,0.9-1.6,0.8-2.3  c0-0.5-0.3-0.9-0.5-1.3c-1.2-2.5-3-4.9-5.1-6.8c-0.1,0-0.2,0-0.2-0.1c-0.5-0.2-0.9-0.6-0.9-1.1c0,0,0-0.1,0-0.1c0,0,0-0.1,0-0.1  c0-0.5,0.2-1,0.7-1.3c0.4-0.3,1-0.4,1.4-0.2c0.5,0.2,0.8,0.7,0.8,1.2c0,0.3,0,0.7-0.2,1c2,2,3.7,4.3,4.9,6.8  c0.3,0.5,0.5,1.2,0.6,1.9c0.1,1.2-0.4,2.3-1,3.3c-1.2,2-2.7,3.8-4.1,5.6C65.2,58.9,65,59,64.8,59z"
     id="path22" /><path
     d="M64.2,64.3c-0.1,0-0.3,0-0.4,0c-0.9-0.2-1.7-0.9-2-1.8c-0.2-0.7-0.3-1.5-0.1-2.4c0.1-0.8,0.4-1.5,0.7-2.2  c0.2-0.4,0.7-0.8,1.2-0.7c0.3,0,0.6,0.3,0.7,0.6c0.1,0,0.2,0.1,0.3,0.1c0.9,0.7,2.1,1.9,2.2,3.4c0.1,0.9-0.3,1.8-1,2.4  C65.3,64.1,64.8,64.3,64.2,64.3z M63.6,59c-0.2,0.4-0.3,0.9-0.4,1.3c-0.1,0.7-0.1,1.2,0,1.6c0.1,0.4,0.5,0.8,0.8,0.8  c0.3,0.1,0.5-0.1,0.7-0.2c0.3-0.3,0.5-0.7,0.5-1.2c-0.1-1-1-1.9-1.5-2.3C63.7,59.1,63.7,59,63.6,59z"
     id="path23" /></svg>
